<svg xmlns="http://www.w3.org/2000/svg" height="48" viewBox="0 -960 960 960" width="48"><path d="M309.783-187.391q-31.049 0-54.177-23.447t-23.128-53.858v-558.739q0-30.509 23.128-54.026 23.128-23.517 54.177-23.517h438.739q30.509 0 53.907 23.517 23.397 23.517 23.397 54.026v558.739q0 30.411-23.397 53.858-23.398 23.447-53.907 23.447H309.783Zm0-77.305h438.739v-558.739H309.783v558.739ZM172.478-50.086q-31.147 0-54.225-23.398-23.08-23.398-23.08-53.907v-636.044h77.305v636.044h516.044v77.304H172.478Zm137.305-214.61v-558.739 558.739Z"/></svg>