<svg xmlns="http://www.w3.org/2000/svg" height="48" viewBox="0 -960 960 960" width="48"><path d="M523.929-32.326q-84.991 0-160.01-32.216-75.02-32.216-131.091-88.286-56.07-56.071-88.286-131.091-32.216-75.019-32.216-160.01 0-152.238 96.837-266.111Q306-823.913 456.239-850.391q-16.043 99.478 11.337 195.352 27.381 95.874 99.62 167.095 70.761 72.22 166.743 99.023 95.982 26.802 196.213 12.407-25.239 149.205-139.755 246.697Q675.88-32.326 523.929-32.326ZM524-109.87q94.326 0 171.511-51.565t126.945-133.652q-87.282-9.478-167.684-43.098-80.402-33.619-141.946-96.141-63.022-61.044-96.141-140.826-33.12-79.783-42.837-166.065-81.848 48-132.913 125.445Q189.87-538.326 189.87-444q0 139.101 97.514 236.616Q384.899-109.87 524-109.87Zm-11.674-324.456Z"/></svg>