<svg xmlns="http://www.w3.org/2000/svg" height="20" viewBox="0 -960 960 960" width="20"><path d="M-1.326-238.674V-299q0-52.413 45.696-81.37Q90.065-409.326 168-409.326q15.087 0 28.804 1.63 13.718 1.631 27.283 4.109-17.218 20.5-26.457 45.816-9.239 25.317-9.239 51.216v67.881H-1.326Zm240 0v-62.481q0-27.421 14.119-51.079 14.12-23.657 38.837-35.636 44.718-21.978 91.765-33.717 47.048-11.739 95.885-11.739 49.777 0 96.705 11.739t91.645 33.717q24.718 11.979 39.207 35.419 14.489 23.439 14.489 51.451v62.326H238.674Zm532.935 0v-68.698q0-26.733-9.609-50.959-9.609-24.225-26.826-45.213 15.565-2.521 28.93-4.152 13.364-1.63 27.896-1.63 78.222 0 123.774 29.362 45.552 29.362 45.552 80.964v60.326H771.609ZM317.435-312.13h325.13q-8.63-18.327-59.12-33.153-50.489-14.826-103.075-14.826-52.587 0-103.196 14.826-50.609 14.826-59.739 33.153ZM168.211-461.37q29.832 0 50.865-20.995t21.033-50.477q0-30.376-21.058-51.343-21.058-20.967-50.628-20.967-30.466 0-51.499 20.73t-21.033 51.374q0 29.744 20.792 50.711t51.528 20.967Zm624 0q29.832 0 50.865-20.995t21.033-50.477q0-30.376-21.058-51.343-21.058-20.967-50.628-20.967-30.466 0-51.499 20.73t-21.033 51.374q0 29.744 20.792 50.711t51.528 20.967Zm-312.944-24.717q-49.861 0-85.227-35.387-35.366-35.387-35.366-85.939 0-49.935 35.387-85.631 35.386-35.695 85.939-35.695 49.935 0 85.63 35.695 35.696 35.696 35.696 86.363 0 49.862-35.696 85.228-35.695 35.366-86.363 35.366Zm1.103-73.218q20.073 0 33.906-14.202 13.833-14.202 13.833-34.276 0-20.074-13.832-33.906-13.831-13.833-34.277-13.833-19.704 0-33.906 13.831-14.203 13.832-14.203 34.278 0 19.704 14.203 33.906 14.202 14.202 34.276 14.202ZM480-312.13Zm0-295.283Z"/></svg>