<svg xmlns="http://www.w3.org/2000/svg" height="20" viewBox="0 -960 960 960" width="20"><path d="M479.907-171q-30.842 0-52.168-21.516t-21.326-52.283q0-30.866 21.516-52.24 21.516-21.374 52.283-21.374 30.962 0 52.168 21.557 21.207 21.556 21.207 52.38t-21.419 52.15Q510.749-171 479.907-171Zm0-235.413q-30.842 0-52.168-21.516t-21.326-52.283q0-30.962 21.516-52.168 21.516-21.207 52.283-21.207 30.962 0 52.168 21.419 21.207 21.419 21.207 52.261 0 30.842-21.419 52.168t-52.261 21.326Zm0-235.174q-30.842 0-52.168-21.606t-21.326-52.5q0-30.894 21.516-52.101Q449.445-789 480.212-789q30.962 0 52.168 21.419 21.207 21.419 21.207 52.312 0 30.894-21.419 52.288t-52.261 21.394Z"/></svg>